<svg width="20" height="20" viewBox="0 0 20 20" fill="none" xmlns="http://www.w3.org/2000/svg">
<path fill-rule="evenodd" clip-rule="evenodd" d="M18 6.98305C18 6.79311 18.0001 6.60315 17.9989 6.41319C17.998 6.25317 17.9961 6.09319 17.9918 5.93325C17.9824 5.58465 17.9618 5.23306 17.8998 4.88834C17.8369 4.53865 17.7343 4.2132 17.5724 3.89547C17.4134 3.58318 17.2056 3.29741 16.9577 3.04967C16.7098 2.80192 16.424 2.59427 16.1116 2.4353C15.7935 2.27346 15.4677 2.17081 15.1176 2.10796C14.7729 2.04606 14.4212 2.02553 14.0726 2.01612C13.9125 2.01179 13.7525 2.00996 13.5924 2.00897C13.4023 2.00781 13.2123 2.0079 13.0222 2.0079L10.8155 2H9.165L6.9973 2.0079C6.80688 2.0079 6.61645 2.00781 6.42603 2.00897C6.2656 2.00996 6.10525 2.01179 5.94488 2.01612C5.59547 2.02553 5.24299 2.04608 4.89742 2.10806C4.54687 2.17089 4.22059 2.27349 3.9021 2.43522C3.58904 2.59421 3.30257 2.80188 3.05419 3.04967C2.80584 3.29739 2.59767 3.5831 2.43831 3.89533C2.27606 4.21322 2.17318 4.53886 2.11015 4.88875C2.0481 5.23333 2.02753 5.5848 2.01808 5.93325C2.01377 6.09321 2.0119 6.25319 2.01093 6.41319C2.00977 6.60317 2 6.83915 2 7.02911L2.00006 9.16677L2 10.8349L2.00986 13.018C2.00986 13.2082 2.00979 13.3984 2.01093 13.5886C2.0119 13.7489 2.01377 13.9091 2.0181 14.0692C2.02753 14.4183 2.04814 14.7704 2.11025 15.1156C2.17326 15.4657 2.27611 15.7916 2.43823 16.1098C2.59761 16.4225 2.80582 16.7086 3.05419 16.9567C3.30255 17.2048 3.58894 17.4128 3.90195 17.572C4.22062 17.734 4.54707 17.8368 4.89782 17.8997C5.24324 17.9617 5.5956 17.9823 5.94488 17.9917C6.10525 17.996 6.26562 17.9979 6.42604 17.9989C6.61647 18 6.80688 17.9999 6.9973 17.9999L9.18459 18H10.8392L13.0222 17.9999C13.2123 17.9999 13.4023 18 13.5924 17.9989C13.7525 17.9979 13.9125 17.996 14.0726 17.9917C14.4213 17.9823 14.7731 17.9617 15.118 17.8997C15.4679 17.8367 15.7935 17.734 16.1114 17.572C16.4239 17.4128 16.7098 17.2049 16.9577 16.9567C17.2056 16.7087 17.4133 16.4226 17.5724 16.1099C17.7343 15.7916 17.837 15.4655 17.8999 15.1152C17.9618 14.7701 17.9824 14.4181 17.9918 14.0692C17.9961 13.909 17.998 13.7489 17.9989 13.5886C18.0001 13.3984 18 13.2082 18 13.018C18 13.018 17.9999 10.8735 17.9999 10.8349V9.16502C17.9999 9.13656 18 6.98305 18 6.98305" fill="#0B0E11"/>
<path d="M6.63122 9.99988L5.23559 8.60426L3.83997 9.99988L5.23559 11.3955L6.63122 9.99988ZM9.99997 13.3783L12.387 10.9913L13.7826 12.3869L11.3956 14.7643L9.99997 16.1599L8.61397 14.7643L6.22697 12.3869L7.62259 10.9913L9.99997 13.3783ZM14.7643 11.3859L13.3783 9.99988L14.774 8.60426L16.16 9.99988L14.7643 11.3859ZM9.99997 6.62151L7.61297 9.00851L6.22697 7.61288L8.61397 5.22588L9.99997 3.83988L11.3956 5.23551L13.7826 7.62251L12.387 9.00851L9.99997 6.62151ZM9.99997 8.61388L11.3956 9.99988L9.99997 11.3955L8.61397 9.99988L9.99997 8.61388Z" fill="url(#paint0_linear)"/>
<rect x="1" y="1" width="18" height="18" rx="5" stroke="white" stroke-width="2"/>
<defs>
<linearGradient id="paint0_linear" x1="9.99997" y1="16.1599" x2="9.99997" y2="3.83988" gradientUnits="userSpaceOnUse">
<stop stop-color="#F0B90B"/>
<stop offset="1" stop-color="#F8D33A"/>
</linearGradient>
</defs>
</svg>
